<?xml version="1.0" encoding="utf-8"?>
<!-- Generator: Adobe Illustrator 28.1.0, SVG Export Plug-In . SVG Version: 6.00 Build 0)  -->
<svg version="1.1" id="Layer_1" xmlns="http://www.w3.org/2000/svg" xmlns:xlink="http://www.w3.org/1999/xlink" x="0px" y="0px"
	 viewBox="0 0 30 30" style="enable-background:new 0 0 30 30;" xml:space="preserve">
<path d="M20.9,19l-0.8,0.8c0,0-1.8,1.8-6.7-3.1c-4.9-4.9-3.1-6.7-3.1-6.7l0.5-0.5c1.2-1.2,1.3-3,0.3-4.4L9,2.3
	C7.7,0.6,5.2,0.3,3.8,1.8L1.2,4.4C0.4,5.1-0.1,6,0,7.1c0.1,2.6,1.3,8.3,8,15c7.1,7,13.7,7.3,16.4,7.1c0.9-0.1,1.6-0.5,2.2-1.1
	l2.4-2.4c1.6-1.6,1.1-4.3-0.9-5.4L25,18.5C23.6,17.8,22,18,20.9,19z"/>
</svg>
