<?xml version="1.0" encoding="utf-8"?>
<!-- Generator: Adobe Illustrator 28.1.0, SVG Export Plug-In . SVG Version: 6.00 Build 0)  -->
<svg version="1.1" id="Layer_1" xmlns="http://www.w3.org/2000/svg" xmlns:xlink="http://www.w3.org/1999/xlink" x="0px" y="0px"
	 viewBox="0 0 30 30" style="enable-background:new 0 0 30 30;" xml:space="preserve">
<path d="M5.7,4.4c5.8-4.1,14.2-3.8,19.6,0.8C30.8,9.9,31.6,17.5,27,23c-4.3,5.2-11.9,6.9-18.3,4.2l-0.3-0.2l-6.6,1.4l-0.1,0l-0.2,0
	l-0.2,0l-0.1,0l-0.2,0L1,28.4l-0.1-0.1l-0.1-0.1l-0.2-0.1l-0.1-0.1l-0.1-0.1l-0.1-0.1l-0.1-0.2l-0.1-0.2l0-0.2l0-0.1L0,27l0-0.2
	l0-0.1l0-0.2l0-0.1l1.7-5.2l0-0.1C-1.5,15.7,0,8.7,5.4,4.6L5.7,4.4L5.7,4.4z"/>
</svg>
