<svg width="15" height="15" viewBox="0 0 15 15" fill="none" xmlns="http://www.w3.org/2000/svg">
<path d="M13.7402 6.70196L11.0977 9.00821L11.8893 12.4418C11.9312 12.6213 11.9192 12.8092 11.8549 12.9819C11.7906 13.1546 11.6768 13.3046 11.5277 13.413C11.3787 13.5214 11.201 13.5835 11.0168 13.5915C10.8327 13.5995 10.6503 13.553 10.4924 13.4578L7.49767 11.6414L4.50939 13.4578C4.35152 13.553 4.16911 13.5995 3.98496 13.5915C3.80081 13.5835 3.62309 13.5214 3.47403 13.413C3.32497 13.3046 3.21118 13.1546 3.14688 12.9819C3.08258 12.8092 3.07062 12.6213 3.11251 12.4418L3.90294 9.01172L1.25978 6.70196C1.11998 6.58139 1.01889 6.42222 0.969186 6.24443C0.919484 6.06663 0.92338 5.87812 0.980387 5.70253C1.03739 5.52694 1.14497 5.37209 1.28964 5.2574C1.4343 5.1427 1.6096 5.07328 1.79357 5.05782L5.27755 4.75606L6.63751 1.51231C6.70853 1.3421 6.82832 1.19672 6.9818 1.09445C7.13528 0.992189 7.31559 0.937622 7.50001 0.937622C7.68444 0.937622 7.86475 0.992189 8.01822 1.09445C8.1717 1.19672 8.29149 1.3421 8.36251 1.51231L9.72657 4.75606L13.2094 5.05782C13.3934 5.07328 13.5687 5.1427 13.7133 5.2574C13.858 5.37209 13.9656 5.52694 14.0226 5.70253C14.0796 5.87812 14.0835 6.06663 14.0338 6.24443C13.9841 6.42222 13.883 6.58139 13.7432 6.70196H13.7402Z" fill="#8FA8FF"/>
</svg>
