<?xml version="1.0" encoding="utf-8"?>
<!-- Generator: Adobe Illustrator 28.1.0, SVG Export Plug-In . SVG Version: 6.00 Build 0)  -->
<svg version="1.1" id="Layer_1" xmlns="http://www.w3.org/2000/svg" xmlns:xlink="http://www.w3.org/1999/xlink" x="0px" y="0px"
	 viewBox="0 0 15 15" style="enable-background:new 0 0 15 15;" xml:space="preserve">
<style type="text/css">
</style>
<path class="st0" d="M13.7,6.7L11.1,9l0.8,3.4c0,0.2,0,0.4,0,0.5c-0.1,0.2-0.2,0.3-0.3,0.4c-0.1,0.1-0.3,0.2-0.5,0.2
	c-0.2,0-0.4,0-0.5-0.1l-3-1.8l-3,1.8c-0.2,0.1-0.3,0.1-0.5,0.1c-0.2,0-0.4-0.1-0.5-0.2S3.2,13.2,3.1,13c-0.1-0.2-0.1-0.4,0-0.5
	L3.9,9L1.3,6.7C1.1,6.6,1,6.4,1,6.2c0-0.2,0-0.4,0-0.5C1,5.5,1.1,5.4,1.3,5.3c0.1-0.1,0.3-0.2,0.5-0.2l3.5-0.3l1.4-3.2
	C6.7,1.3,6.8,1.2,7,1.1C7.1,1,7.3,0.9,7.5,0.9C7.7,0.9,7.9,1,8,1.1c0.2,0.1,0.3,0.2,0.3,0.4l1.4,3.2l3.5,0.3c0.2,0,0.4,0.1,0.5,0.2
	C13.9,5.4,14,5.5,14,5.7s0.1,0.4,0,0.5C14,6.4,13.9,6.6,13.7,6.7L13.7,6.7z"/>
</svg>
