<svg width="15" height="15" viewBox="0 0 15 15" fill="none" xmlns="http://www.w3.org/2000/svg">
<path d="M13.4483 6.2931L13.4115 6.32525L10.7689 8.6315L10.5431 8.82853L10.6104 9.12053L11.402 12.5541L11.4024 12.5554C11.4219 12.6392 11.4163 12.7269 11.3863 12.8075C11.3563 12.8881 11.3032 12.9581 11.2336 13.0087C11.1641 13.0593 11.0811 13.0882 10.9952 13.092C10.9095 13.0957 10.8245 13.0741 10.7509 13.0299C10.7508 13.0298 10.7506 13.0297 10.7505 13.0296L7.75697 11.2139L7.49739 11.0565L7.23796 11.2141L4.2513 13.0296C4.25109 13.0297 4.25087 13.0298 4.25066 13.03C4.17713 13.0741 4.09226 13.0957 4.00657 13.092C3.92063 13.0882 3.8377 13.0593 3.76814 13.0087C3.69858 12.9581 3.64547 12.8881 3.61547 12.8075C3.58546 12.7269 3.57988 12.6392 3.59943 12.5554L3.59974 12.5541L4.39017 9.124L4.45741 8.83224L4.23195 8.63522L1.58879 6.32546L1.5888 6.32545L1.58633 6.32333C1.52109 6.26706 1.47392 6.19278 1.45072 6.10981C1.42753 6.02684 1.42935 5.93887 1.45595 5.85693C1.48255 5.77499 1.53276 5.70272 1.60027 5.6492C1.66778 5.59568 1.74959 5.56328 1.83544 5.55606L1.83671 5.55595L5.3207 5.25419L5.62181 5.22811L5.73867 4.94938L7.09863 1.70563L7.09895 1.70485C7.13198 1.6257 7.18768 1.5581 7.25905 1.51055C7.33041 1.463 7.41425 1.43762 7.50001 1.43762C7.58577 1.43762 7.66961 1.463 7.74098 1.51055C7.81235 1.5581 7.86805 1.6257 7.90107 1.70485L7.90161 1.70613L9.26567 4.94988L9.38268 5.22814L9.68342 5.25419L13.1662 5.55595L13.1675 5.55606C13.2534 5.56328 13.3352 5.59568 13.4027 5.6492C13.4702 5.70272 13.5204 5.77499 13.547 5.85693C13.5736 5.93887 13.5754 6.02684 13.5522 6.10981C13.533 6.17867 13.4972 6.24154 13.4483 6.2931Z" stroke="#8FA8FF"/>
</svg>
