<?xml version="1.0" encoding="utf-8"?>
<!-- Generator: Adobe Illustrator 28.1.0, SVG Export Plug-In . SVG Version: 6.00 Build 0)  -->
<svg version="1.1" id="Layer_1" xmlns="http://www.w3.org/2000/svg" xmlns:xlink="http://www.w3.org/1999/xlink" x="0px" y="0px"
	 viewBox="0 0 50 50" style="enable-background:new 0 0 50 50;" xml:space="preserve">
<style type="text/css">
	.st0{fill:#010101;}
	.st1{fill-rule:evenodd;clip-rule:evenodd;fill:#010101;}
</style>
<g>
	<path class="st0" d="M36.6,18c0,2.6-2.1,4.6-4.6,4.6s-4.6-2.1-4.6-4.6s2.1-4.6,4.6-4.6S36.6,15.5,36.6,18"/>
	<path class="st1" d="M25,0C11.2,0,0,11.2,0,25s11.2,25,25,25s25-11.2,25-25S38.8,0,25,0 M23.1,32.8l-10-10c-2-2-5.2-2.1-7.3-0.2
		l-2.3,2.1c0.2-11.9,10-21.4,21.8-21.2c11.9,0.2,21.4,10,21.2,21.8c-0.1,4.3-1.4,8.4-3.8,11.9l-4.3-3.9c-2.4-2.2-6-2.4-8.7-0.5
		l-0.7,0.5C27.2,34.6,24.7,34.4,23.1,32.8"/>
</g>
</svg>
