<?xml version="1.0" encoding="utf-8"?>
<!-- Generator: Adobe Illustrator 28.1.0, SVG Export Plug-In . SVG Version: 6.00 Build 0)  -->
<svg version="1.1" id="Layer_1" xmlns="http://www.w3.org/2000/svg" xmlns:xlink="http://www.w3.org/1999/xlink" x="0px" y="0px"
	 viewBox="0 0 40 40" style="enable-background:new 0 0 40 40;" xml:space="preserve">
<style type="text/css">
</style>
<g>
	<path class="st0" d="M29.3,14.4c0,2.1-1.7,3.7-3.7,3.7c-2.1,0-3.7-1.7-3.7-3.7s1.7-3.7,3.7-3.7C27.6,10.7,29.3,12.4,29.3,14.4z"/>
	<path class="st1" d="M20,0C8.9,0,0,8.9,0,20s8.9,20,20,20s20-9,20-20S31,0,20,0z M18.5,26.2l-8-8c-1.6-1.6-4.2-1.7-5.8-0.2
		l-1.9,1.7c0.1-9.5,8-17.1,17.5-17c9.5,0.1,17.1,8,17,17.5c-0.1,3.4-1.1,6.7-3,9.5l-3.4-3.1c-1.9-1.7-4.8-1.9-6.9-0.4l-0.6,0.4
		C21.8,27.7,19.8,27.5,18.5,26.2"/>
</g>
</svg>
