<svg width="40" height="40" viewBox="0 0 40 40" fill="none" xmlns="http://www.w3.org/2000/svg">
<path d="M27.44 15.5361C27.44 17.1841 26.104 18.5121 24.464 18.5121C22.824 18.5121 21.488 17.1761 21.488 15.5361C21.488 13.8961 22.824 12.5601 24.464 12.5601C26.104 12.5601 27.44 13.8961 27.44 15.5361Z" fill="#8FA8FF"/>
<path fill-rule="evenodd" clip-rule="evenodd" d="M20 4C11.16 4 4 11.16 4 20C4 28.84 11.16 36 20 36C28.84 36 36 28.84 36 20C36 11.16 28.84 4 20 4ZM18.784 25L12.4 18.616C11.128 17.344 9.08 17.272 7.728 18.464L6.24 19.792C6.352 12.192 12.608 6.12 20.216 6.232C27.816 6.344 33.888 12.6 33.776 20.208C33.736 22.936 32.888 25.584 31.336 27.824L28.608 25.352C27.064 23.96 24.76 23.824 23.056 25.016L22.608 25.328C21.424 26.16 19.816 26.024 18.792 25" fill="#8FA8FF"/>
</svg>
