<?xml version="1.0" encoding="UTF-8"?>
<svg id="Layer_1" data-name="Layer 1" xmlns="http://www.w3.org/2000/svg" viewBox="0 0 50 50">
  <defs>
    <style>
      .cls-1 {
        fill-rule: evenodd;
      }

      .cls-1, .cls-2 {
        fill: #010101;
        stroke-width: 0px;
      }
    </style>
  </defs>
  <path class="cls-2" d="m34.3,19.42c0,2.06-1.67,3.72-3.72,3.72s-3.72-1.67-3.72-3.72,1.67-3.72,3.72-3.72,3.72,1.67,3.72,3.72"/>
  <path class="cls-1" d="m25,5C13.95,5,5,13.95,5,25s8.95,20,20,20,20-8.95,20-20S36.05,5,25,5m-1.52,26.25l-7.98-7.98c-1.59-1.59-4.15-1.68-5.84-.19l-1.86,1.66c.14-9.5,7.96-17.09,17.47-16.95,9.5.14,17.09,7.96,16.95,17.47-.05,3.41-1.11,6.72-3.05,9.52l-3.41-3.09c-1.93-1.74-4.81-1.91-6.94-.42l-.56.39c-1.48,1.04-3.49.87-4.77-.41"/>
</svg>