<?xml version="1.0" encoding="utf-8"?>
<!-- Generator: Adobe Illustrator 28.1.0, SVG Export Plug-In . SVG Version: 6.00 Build 0)  -->
<svg version="1.1" id="Layer_1" xmlns="http://www.w3.org/2000/svg" xmlns:xlink="http://www.w3.org/1999/xlink" x="0px" y="0px"
	 viewBox="0 0 45 45" style="enable-background:new 0 0 45 45;" xml:space="preserve">
<style type="text/css">
	.st0{fill:#FFFFFF;}
</style>
<g>
	<g>
		<circle class="st0" cx="22.5" cy="22.5" r="20.5"/>
		<path d="M22.5,45C10.1,45,0,34.9,0,22.5S10.1,0,22.5,0S45,10.1,45,22.5S34.9,45,22.5,45z M22.5,4C12.3,4,4,12.3,4,22.5
			C4,32.7,12.3,41,22.5,41C32.7,41,41,32.7,41,22.5C41,12.3,32.7,4,22.5,4z"/>
	</g>
	<g>
		<path d="M13.7,25.5L12.4,31c0,0.2,0,0.4,0,0.6c0,0.2,0.1,0.4,0.3,0.5c0.1,0.2,0.3,0.3,0.5,0.4c0.2,0.1,0.4,0.1,0.6,0.1
			c0.1,0,0.2,0,0.3,0l5.5-1.3l10.6-10.6l-5.9-5.9L13.7,25.5z"/>
	</g>
	<g>
		<path d="M32.3,16.3l-3.5-3.5c-0.2-0.2-0.5-0.4-0.9-0.4c-0.3,0-0.6,0.1-0.9,0.4l-2,2l5.3,5.3l2-2c0.1-0.1,0.2-0.3,0.3-0.4
			c0.1-0.2,0.1-0.3,0.1-0.5c0-0.2,0-0.3-0.1-0.5C32.5,16.5,32.4,16.4,32.3,16.3z"/>
	</g>
</g>
</svg>
