<?xml version="1.0" encoding="utf-8"?>
<!-- Generator: Adobe Illustrator 28.1.0, SVG Export Plug-In . SVG Version: 6.00 Build 0)  -->
<svg version="1.1" id="Layer_1" xmlns="http://www.w3.org/2000/svg" xmlns:xlink="http://www.w3.org/1999/xlink" x="0px" y="0px"
	 viewBox="0 0 18 18" style="enable-background:new 0 0 18 18;" xml:space="preserve">
<g>
	<path d="M16.4,18c-0.4,0-0.8-0.2-1.2-0.5l-3.9-3.9c-0.3,0.2-0.7,0.4-1.1,0.6c-1.8,0.7-3.8,0.7-5.6,0c-0.9-0.4-1.7-0.9-2.4-1.6
		c-0.7-0.7-1.2-1.5-1.6-2.4C0.2,9.3,0,8.3,0,7.4c0-1,0.2-1.9,0.6-2.8c0.4-0.9,0.9-1.7,1.6-2.4c0.7-0.7,1.5-1.2,2.4-1.6
		c1.8-0.7,3.8-0.7,5.6,0c0.9,0.4,1.7,0.9,2.4,1.6c0.7,0.7,1.2,1.5,1.6,2.4c0.4,0.9,0.6,1.8,0.6,2.8c0,1-0.2,1.9-0.6,2.8
		c-0.2,0.4-0.3,0.8-0.6,1.1l3.9,3.9c0.6,0.6,0.6,1.7,0,2.3C17.2,17.8,16.8,18,16.4,18z M7.4,3.3c-0.5,0-1.1,0.1-1.6,0.3
		C5.3,3.8,4.9,4.1,4.5,4.5C4.1,4.9,3.8,5.3,3.6,5.8c-0.2,0.5-0.3,1-0.3,1.6s0.1,1.1,0.3,1.6c0.2,0.5,0.5,0.9,0.9,1.3
		c0.4,0.4,0.8,0.7,1.3,0.9c1,0.4,2.1,0.4,3.1,0c0.5-0.2,0.9-0.5,1.3-0.9c0.4-0.4,0.7-0.8,0.9-1.3s0.3-1,0.3-1.6s-0.1-1.1-0.3-1.6
		s-0.5-0.9-0.9-1.3C9.9,4.1,9.4,3.8,8.9,3.6C8.4,3.4,7.9,3.3,7.4,3.3z"/>
</g>
</svg>
