<?xml version="1.0" encoding="utf-8"?>
<!-- Generator: Adobe Illustrator 28.1.0, SVG Export Plug-In . SVG Version: 6.00 Build 0)  -->
<svg version="1.1" id="Layer_1" xmlns="http://www.w3.org/2000/svg" xmlns:xlink="http://www.w3.org/1999/xlink" x="0px" y="0px"
	 viewBox="0 0 30 30" style="enable-background:new 0 0 30 30;" xml:space="preserve">
<g>
	<path d="M5,26.7C5,28.5,6.5,30,8.3,30h13.3c1.8,0,3.3-1.5,3.3-3.3V10c0-1.8-1.5-3.3-3.3-3.3H8.3C6.5,6.7,5,8.2,5,10V26.7z M25,1.7
		h-4.2l-1.2-1.2C19.4,0.2,18.9,0,18.5,0h-7c-0.4,0-0.9,0.2-1.2,0.5L9.2,1.7H5c-0.9,0-1.7,0.8-1.7,1.7S4.1,5,5,5h20
		c0.9,0,1.7-0.8,1.7-1.7S25.9,1.7,25,1.7z"/>
</g>
</svg>
