<?xml version="1.0" encoding="utf-8"?>
<!-- Generator: Adobe Illustrator 28.1.0, SVG Export Plug-In . SVG Version: 6.00 Build 0)  -->
<svg version="1.1" id="Layer_1" xmlns="http://www.w3.org/2000/svg" xmlns:xlink="http://www.w3.org/1999/xlink" x="0px" y="0px"
	 viewBox="0 0 60 60" style="enable-background:new 0 0 60 60;" xml:space="preserve">
<style type="text/css">
	.st0{fill-opacity:0.3;}
	.st1{fill:#FFFFFF;}
</style>
<circle class="st0" cx="30" cy="30" r="30"/>
<path class="st1" d="M23.1,27.4L22.2,30H20l3.7-10h2.6L30,30h-2.3l-0.9-2.6H23.1z M26.4,26l-1.4-4h-0.1l-1.4,4H26.4z"/>
<path class="st1" d="M15,18.8c0-1,0.4-1.9,1.1-2.7c0.7-0.7,1.7-1.1,2.7-1.1h13.1c1,0,1.9,0.4,2.7,1.1c0.7,0.7,1.1,1.7,1.1,2.7v5.6
	h5.6c1,0,1.9,0.4,2.7,1.1c0.7,0.7,1.1,1.7,1.1,2.7v13.1c0,1-0.4,1.9-1.1,2.7c-0.7,0.7-1.7,1.1-2.7,1.1H28.1c-1,0-1.9-0.4-2.7-1.1
	c-0.7-0.7-1.1-1.7-1.1-2.7v-5.6h-5.6c-1,0-1.9-0.4-2.7-1.1c-0.7-0.7-1.1-1.7-1.1-2.7V18.8z M18.8,16.9c-0.5,0-1,0.2-1.3,0.5
	s-0.5,0.8-0.5,1.3v13.1c0,0.5,0.2,1,0.5,1.3c0.4,0.4,0.8,0.5,1.3,0.5h13.1c0.5,0,1-0.2,1.3-0.5c0.4-0.4,0.5-0.8,0.5-1.3V18.8
	c0-0.5-0.2-1-0.5-1.3c-0.4-0.4-0.8-0.5-1.3-0.5H18.8z M32.1,35.6c0.4,0.6,0.8,1.1,1.2,1.6c-1.4,1.1-3.1,1.9-5.2,2.4
	c0.3,0.4,0.8,1.2,1,1.6c2.1-0.7,3.9-1.6,5.4-2.8c1.5,1.2,3.3,2.2,5.5,2.8c0.2-0.5,0.8-1.3,1.2-1.7c-2.1-0.5-3.9-1.3-5.3-2.4
	c1.3-1.4,2.3-3.1,3-5.2h2.2v-2h-5.6v2h1.4c-0.6,1.6-1.4,2.9-2.4,4c-0.3-0.3-0.5-0.6-0.8-0.9C33.4,35.4,32.8,35.6,32.1,35.6z"/>
</svg>
