<?xml version="1.0" encoding="utf-8"?>
<!-- Generator: Adobe Illustrator 28.1.0, SVG Export Plug-In . SVG Version: 6.00 Build 0)  -->
<svg version="1.1" id="Layer_1" xmlns="http://www.w3.org/2000/svg" xmlns:xlink="http://www.w3.org/1999/xlink" x="0px" y="0px"
	 viewBox="0 0 60 60" style="enable-background:new 0 0 60 60;" xml:space="preserve">
<style type="text/css">
	.st0{fill-opacity:0.3;}
	.st1{fill:#FFFFFF;}
</style>
<circle class="st0" cx="30" cy="30" r="30"/>
<path class="st1" d="M37.5,45c-1.3,0-2.3-0.4-3.2-1.3c-0.9-0.9-1.3-1.9-1.3-3.2c0-0.2,0-0.4,0-0.5c0-0.2,0.1-0.4,0.1-0.5l-10.6-6.2
	c-0.4,0.4-0.9,0.7-1.4,0.9c-0.5,0.2-1.1,0.3-1.6,0.3c-1.3,0-2.3-0.4-3.2-1.3C15.4,32.3,15,31.3,15,30s0.4-2.3,1.3-3.2
	c0.9-0.9,1.9-1.3,3.2-1.3c0.6,0,1.1,0.1,1.6,0.3c0.5,0.2,1,0.5,1.4,0.9l10.6-6.2c-0.1-0.1-0.1-0.3-0.1-0.5c0-0.2,0-0.4,0-0.5
	c0-1.3,0.4-2.3,1.3-3.2c0.9-0.9,1.9-1.3,3.2-1.3s2.3,0.4,3.2,1.3c0.9,0.9,1.3,1.9,1.3,3.2s-0.4,2.3-1.3,3.2
	c-0.9,0.9-1.9,1.3-3.2,1.3c-0.6,0-1.1-0.1-1.7-0.3c-0.5-0.2-1-0.5-1.4-0.9L23.9,29c0.1,0.1,0.1,0.3,0.1,0.5c0,0.2,0,0.4,0,0.5
	c0,0.2,0,0.4,0,0.5c0,0.2-0.1,0.4-0.1,0.5l10.6,6.2c0.4-0.4,0.9-0.7,1.4-0.9c0.5-0.2,1.1-0.3,1.7-0.3c1.3,0,2.3,0.4,3.2,1.3
	c0.9,0.9,1.3,1.9,1.3,3.2s-0.4,2.3-1.3,3.2C39.8,44.6,38.8,45,37.5,45z"/>
</svg>
