<?xml version="1.0" encoding="utf-8"?>
<!-- Generator: Adobe Illustrator 28.1.0, SVG Export Plug-In . SVG Version: 6.00 Build 0)  -->
<svg version="1.1" id="Layer_1" xmlns="http://www.w3.org/2000/svg" xmlns:xlink="http://www.w3.org/1999/xlink" x="0px" y="0px"
	 viewBox="0 0 60 60" style="enable-background:new 0 0 60 60;" xml:space="preserve">
<path d="M45,60c-2.6,0-4.6-0.8-6.4-2.6C36.8,55.6,36,53.6,36,51c0-0.4,0-0.8,0-1c0-0.4,0.2-0.8,0.2-1L15,36.6
	c-0.8,0.8-1.8,1.4-2.8,1.8S10,39,9,39c-2.6,0-4.6-0.8-6.4-2.6C0.8,34.6,0,32.6,0,30s0.8-4.6,2.6-6.4C4.4,21.8,6.4,21,9,21
	c1.2,0,2.2,0.2,3.2,0.6c1,0.4,2,1,2.8,1.8L36.2,11C36,10.8,36,10.4,36,10s0-0.8,0-1c0-2.6,0.8-4.6,2.6-6.4C40.4,0.8,42.4,0,45,0
	s4.6,0.8,6.4,2.6C53.2,4.4,54,6.4,54,9s-0.8,4.6-2.6,6.4C49.6,17.2,47.6,18,45,18c-1.2,0-2.2-0.2-3.4-0.6c-1-0.4-2-1-2.8-1.8
	L17.8,28c0.2,0.2,0.2,0.6,0.2,1s0,0.8,0,1c0,0.4,0,0.8,0,1c0,0.4-0.2,0.8-0.2,1L39,44.4c0.8-0.8,1.8-1.4,2.8-1.8S44,42,45.2,42
	c2.6,0,4.6,0.8,6.4,2.6c1.8,1.8,2.6,3.8,2.6,6.4s-0.8,4.6-2.6,6.4C49.6,59.2,47.6,60,45,60z"/>
</svg>
