<?xml version="1.0" encoding="utf-8"?>
<!-- Generator: Adobe Illustrator 28.1.0, SVG Export Plug-In . SVG Version: 6.00 Build 0)  -->
<svg version="1.1" id="Layer_1" xmlns="http://www.w3.org/2000/svg" xmlns:xlink="http://www.w3.org/1999/xlink" x="0px" y="0px"
	 viewBox="0 0 40 40" style="enable-background:new 0 0 40 40;" xml:space="preserve">
<g>
	<path d="M2.6,25.9L0.1,36.7c-0.1,0.4-0.1,0.8,0,1.2c0.1,0.4,0.3,0.8,0.5,1.1c0.3,0.3,0.6,0.6,0.9,0.7S2.3,40,2.7,40
		c0.2,0,0.4,0,0.6,0l10.9-2.5L35,16.6L23.4,5L2.6,25.9z"/>
	<path d="M39.3,7.7l-7-7C31.9,0.3,31.2,0,30.6,0s-1.3,0.3-1.7,0.7L25,4.6L35.4,15l3.9-3.9c0.2-0.2,0.4-0.5,0.5-0.8
		C39.9,10,40,9.7,40,9.4c0-0.3-0.1-0.6-0.2-0.9C39.7,8.2,39.5,7.9,39.3,7.7z"/>
</g>
</svg>
