<svg width="40" height="40" viewBox="0 0 40 40" fill="none" xmlns="http://www.w3.org/2000/svg">
<path d="M6.05261 24.6875L4.05017 33.3481C3.98109 33.6647 3.98346 33.9928 4.0571 34.3083C4.13074 34.6239 4.2738 34.919 4.47581 35.172C4.67782 35.4251 4.9337 35.6297 5.22474 35.771C5.51578 35.9123 5.83463 35.9866 6.15801 35.9886C6.30869 36.0038 6.46051 36.0038 6.61119 35.9886L15.306 33.9818L32.0001 17.3154L22.6834 8L6.05261 24.6875Z" fill="black"/>
<path d="M35.4218 10.1381L29.8525 4.56881C29.4864 4.20451 28.9909 4 28.4744 4C27.9579 4 27.4624 4.20451 27.0962 4.56881L24.0001 7.66495L32.3351 16L35.4312 12.9039C35.6124 12.7217 35.7559 12.5057 35.8535 12.2681C35.9511 12.0304 36.0009 11.7759 36.0001 11.519C35.9992 11.2621 35.9477 11.0079 35.8484 10.771C35.7492 10.534 35.6042 10.319 35.4218 10.1381Z" fill="black"/>
</svg>
