<?xml version="1.0" encoding="utf-8"?>
<!-- Generator: Adobe Illustrator 28.1.0, SVG Export Plug-In . SVG Version: 6.00 Build 0)  -->
<svg version="1.1" id="Layer_1" xmlns="http://www.w3.org/2000/svg" xmlns:xlink="http://www.w3.org/1999/xlink" x="0px" y="0px"
	 viewBox="0 0 50 50" style="enable-background:new 0 0 50 50;" xml:space="preserve">
<style type="text/css">
	.st0{fill:#010101;}
	.st1{fill:#FFFFFF;stroke:#FFFFFF;stroke-miterlimit:10;}
</style>
<g>
	<circle class="st0" cx="25" cy="25" r="25"/>
	<rect x="23.2" y="36.5" class="st1" width="3.1" height="3.1"/>
	<path class="st1" d="M26.5,31.1c0-0.6,0.1-1.2,0.2-1.7c0.1-0.5,0.4-1,0.9-1.5c0.6-0.6,1.3-1.2,1.9-1.8c0.6-0.6,1.2-1.2,1.7-1.8
		s0.9-1.3,1.2-2.1c0.3-0.7,0.5-1.6,0.5-2.6c0-1.1-0.2-2.1-0.6-3.1c-0.4-1-1-1.8-1.7-2.5c-0.7-0.7-1.6-1.3-2.5-1.7
		c-1-0.4-2-0.6-3.1-0.6s-2.1,0.2-3.1,0.6c-1,0.4-1.8,1-2.5,1.7c-0.7,0.7-1.3,1.6-1.7,2.5s-0.6,2-0.6,3.1h3.5c0-0.6,0.1-1.2,0.3-1.7
		s0.6-1,1-1.4c0.4-0.4,0.9-0.7,1.4-0.9c0.5-0.2,1.1-0.3,1.8-0.4c0.6,0,1.2,0.1,1.7,0.3s1,0.6,1.4,1c0.4,0.4,0.7,0.9,1,1.4
		c0.2,0.5,0.3,1.1,0.4,1.8c0,0.7-0.1,1.3-0.5,1.8s-0.7,1-1.1,1.5c-0.5,0.5-1,1-1.5,1.5s-1,1-1.5,1.6c-0.4,0.6-0.8,1.2-1.2,2
		c-0.4,0.8-0.5,1.6-0.5,2.6v1.6h3.5L26.5,31.1L26.5,31.1z"/>
</g>
</svg>
