<?xml version="1.0" encoding="utf-8"?>
<!-- Generator: Adobe Illustrator 28.1.0, SVG Export Plug-In . SVG Version: 6.00 Build 0)  -->
<svg version="1.1" id="Layer_1" xmlns="http://www.w3.org/2000/svg" xmlns:xlink="http://www.w3.org/1999/xlink" x="0px" y="0px"
	 viewBox="0 0 40 40" style="enable-background:new 0 0 40 40;" xml:space="preserve">
<style type="text/css">
	.st0{fill:#8FA8FF;}
	.st1{fill:#FFFFFF;stroke:#FFFFFF;stroke-miterlimit:10;}
</style>
<g>
	<path class="st0" d="M20,40c11,0,20-9,20-20S31,0,20,0S0,9,0,20S9,40,20,40z"/>
	<path class="st1" d="M21.1,29.2h-2.5v2.5h2.5V29.2z"/>
	<path class="st1" d="M21.2,24.9c0-0.5,0.1-0.9,0.1-1.4c0.1-0.4,0.3-0.8,0.7-1.2c0.5-0.5,1-1,1.5-1.5c0.5-0.5,0.9-0.9,1.3-1.5
		c0.4-0.5,0.7-1.1,1-1.7s0.4-1.3,0.4-2.1c0-0.9-0.2-1.7-0.5-2.5c-0.3-0.8-0.8-1.4-1.4-2c-0.6-0.6-1.2-1.1-2-1.4
		c-0.8-0.3-1.6-0.5-2.5-0.5c-0.9,0-1.7,0.2-2.5,0.5s-1.5,0.8-2,1.4c-0.6,0.6-1,1.2-1.4,2c-0.3,0.8-0.5,1.6-0.5,2.5h2.8
		c0-0.5,0.1-1,0.3-1.4c0.2-0.4,0.4-0.8,0.8-1.2c0.3-0.3,0.7-0.6,1.1-0.8c0.4-0.2,0.9-0.3,1.4-0.3c0.5,0,1,0.1,1.4,0.3
		c0.4,0.2,0.8,0.4,1.1,0.8c0.3,0.3,0.6,0.7,0.8,1.1c0.2,0.4,0.3,0.9,0.3,1.4c0,0.5-0.1,1-0.4,1.4c-0.2,0.4-0.5,0.8-0.9,1.2
		c-0.4,0.4-0.8,0.8-1.2,1.2s-0.8,0.8-1.2,1.3c-0.3,0.5-0.7,1-0.9,1.6c-0.3,0.6-0.4,1.3-0.4,2.1v1.2h2.8L21.2,24.9L21.2,24.9z"/>
</g>
</svg>
