<svg width="40" height="40" viewBox="0 0 40 40" fill="none" xmlns="http://www.w3.org/2000/svg">
<path d="M20 36C28.8366 36 36 28.8366 36 20C36 11.1634 28.8366 4 20 4C11.1634 4 4 11.1634 4 20C4 28.8366 11.1634 36 20 36Z" fill="#8FA8FF"/>
<path d="M20.856 27.376H18.856V29.376H20.856V27.376Z" fill="white" stroke="white" stroke-miterlimit="10"/>
<path d="M20.984 23.936C20.984 23.552 21.024 23.184 21.096 22.84C21.168 22.496 21.36 22.176 21.656 21.872C22.064 21.464 22.464 21.08 22.856 20.712C23.248 20.344 23.608 19.96 23.92 19.544C24.232 19.128 24.488 18.688 24.688 18.216C24.888 17.744 24.984 17.2 24.984 16.576C24.984 15.864 24.848 15.208 24.576 14.592C24.304 13.976 23.944 13.432 23.48 12.968C23.016 12.504 22.48 12.128 21.856 11.856C21.232 11.584 20.568 11.448 19.856 11.448C19.144 11.448 18.488 11.584 17.872 11.856C17.256 12.128 16.712 12.488 16.248 12.952C15.776 13.408 15.408 13.952 15.136 14.576C14.864 15.2 14.728 15.864 14.728 16.576H16.976C16.976 16.184 17.048 15.808 17.192 15.464C17.336 15.12 17.544 14.816 17.816 14.544C18.088 14.272 18.392 14.072 18.72 13.936C19.048 13.8 19.432 13.72 19.848 13.704C20.24 13.704 20.616 13.776 20.96 13.92C21.304 14.064 21.608 14.272 21.88 14.544C22.152 14.816 22.352 15.12 22.488 15.448C22.624 15.776 22.704 16.16 22.72 16.576C22.72 17 22.624 17.384 22.424 17.72C22.224 18.056 21.984 18.368 21.688 18.672C21.392 18.976 21.072 19.288 20.72 19.608C20.368 19.928 20.048 20.272 19.768 20.64C19.488 21.008 19.24 21.424 19.016 21.904C18.792 22.384 18.696 22.944 18.72 23.576V24.576H20.968V23.936H20.984Z" fill="white" stroke="white" stroke-miterlimit="10"/>
</svg>
