<?xml version="1.0" encoding="UTF-8"?>
<svg id="Layer_1" data-name="Layer 1" xmlns="http://www.w3.org/2000/svg" viewBox="0 0 50 50">
  <defs>
    <style>
      .cls-1 {
        fill: #fff;
        stroke: #fff;
        stroke-miterlimit: 10;
      }

      .cls-2 {
        fill: #010101;
        stroke-width: 0px;
      }
    </style>
  </defs>
  <circle class="cls-2" cx="25" cy="25" r="20"/>
  <rect class="cls-1" x="23.57" y="34.22" width="2.5" height="2.5"/>
  <path class="cls-1" d="m26.23,29.92c0-.48.05-.94.14-1.37s.33-.83.7-1.21c.51-.51,1.01-.99,1.5-1.45.49-.46.94-.94,1.33-1.46s.71-1.07.96-1.66.37-1.27.37-2.05c0-.89-.17-1.71-.51-2.48s-.79-1.45-1.37-2.03-1.25-1.05-2.03-1.39-1.61-.51-2.5-.51-1.71.17-2.48.51-1.45.79-2.03,1.37c-.59.57-1.05,1.25-1.39,2.03s-.51,1.61-.51,2.5h2.81c0-.49.09-.96.27-1.39s.44-.81.78-1.15.72-.59,1.13-.76.89-.27,1.41-.29c.49,0,.96.09,1.39.27s.81.44,1.15.78.59.72.76,1.13.27.89.29,1.41c0,.53-.12,1.01-.37,1.43s-.55.81-.92,1.19-.77.77-1.21,1.17c-.44.4-.84.83-1.19,1.29-.35.46-.66.98-.94,1.58s-.4,1.3-.37,2.09v1.25h2.81v-.8Z"/>
</svg>