<?xml version="1.0" encoding="utf-8"?>
<!-- Generator: Adobe Illustrator 28.1.0, SVG Export Plug-In . SVG Version: 6.00 Build 0)  -->
<svg version="1.1" id="Layer_1" xmlns="http://www.w3.org/2000/svg" xmlns:xlink="http://www.w3.org/1999/xlink" x="0px" y="0px"
	 viewBox="0 0 60 60" style="enable-background:new 0 0 60 60;" xml:space="preserve">
<style type="text/css">
</style>
<path class="st0" d="M36.8,27c-0.8,0-1.5-0.3-2.1-0.9s-0.9-1.3-0.9-2.1v-6c0-0.9,0.3-1.6,0.9-2.1c0.6-0.6,1.3-0.9,2.1-0.9
	s1.6,0.3,2.1,0.9c0.6,0.6,0.9,1.3,0.9,2.1v6c0,0.8-0.3,1.6-0.9,2.1C38.4,26.7,37.7,27,36.8,27z M18.8,45c-0.8,0-1.5-0.3-2.1-0.9
	c-0.6-0.6-0.9-1.3-0.9-2.1V18c0-0.8,0.3-1.5,0.9-2.1S18,15,18.8,15h10.5c0.4,0,0.8,0.1,1.1,0.4c0.3,0.3,0.4,0.6,0.4,1.1
	c0,0.4-0.1,0.8-0.4,1.1c-0.3,0.3-0.6,0.4-1.1,0.4H18.8v24h16.5v-1.5c0-0.4,0.1-0.8,0.4-1.1c0.3-0.3,0.6-0.4,1.1-0.4
	c0.4,0,0.8,0.1,1.1,0.4c0.3,0.3,0.4,0.6,0.4,1.1V42c0,0.8-0.3,1.5-0.9,2.1c-0.6,0.6-1.3,0.9-2.1,0.9H18.8z M30.8,39h-7.5
	c-0.4,0-0.8-0.1-1.1-0.4c-0.3-0.3-0.4-0.6-0.4-1.1c0-0.4,0.1-0.8,0.4-1.1s0.6-0.4,1.1-0.4h7.5c0.4,0,0.8,0.1,1.1,0.4
	c0.3,0.3,0.4,0.6,0.4,1.1c0,0.4-0.1,0.8-0.4,1.1C31.6,38.9,31.2,39,30.8,39z M27.8,34.5h-4.5c-0.4,0-0.8-0.1-1.1-0.4
	c-0.3-0.3-0.4-0.6-0.4-1.1c0-0.4,0.1-0.8,0.4-1.1c0.3-0.3,0.6-0.4,1.1-0.4h4.5c0.4,0,0.8,0.1,1.1,0.4c0.3,0.3,0.4,0.6,0.4,1.1
	c0,0.4-0.1,0.8-0.4,1.1C28.6,34.4,28.2,34.5,27.8,34.5z M36.8,29.3c1.2,0,2.2-0.3,3.1-1c0.9-0.7,1.5-1.6,1.9-2.6
	c0.1-0.4,0.3-0.8,0.6-1.1c0.3-0.3,0.7-0.5,1.1-0.5c0.4,0,0.8,0.2,1.1,0.5s0.4,0.7,0.3,1.1c-0.4,1.6-1.1,3.1-2.3,4.2
	c-1.2,1.2-2.6,1.9-4.3,2.2v2.4c0,0.4-0.1,0.8-0.4,1.1c-0.3,0.3-0.6,0.4-1.1,0.4c-0.4,0-0.8-0.1-1.1-0.4c-0.3-0.3-0.4-0.6-0.4-1.1
	v-2.4c-1.6-0.3-3.1-1-4.3-2.2s-2-2.6-2.3-4.2c-0.1-0.4,0-0.8,0.3-1.1c0.3-0.3,0.6-0.5,1.1-0.5c0.4,0,0.8,0.2,1.1,0.5
	c0.3,0.3,0.5,0.7,0.6,1.1c0.3,1.1,1,2,1.9,2.6C34.6,28.9,35.6,29.3,36.8,29.3z"/>
</svg>
